<svg width="264" height="1069" viewBox="0 0 264 1069" fill="none" xmlns="http://www.w3.org/2000/svg">
<path d="M21.4442 34V9.16H26.6282V18.88H35.8442V9.16H41.0282V34H35.8442V23.56H26.6282V34H21.4442ZM46.2845 28.168V20.824C46.2845 16.936 48.2285 14.992 52.1165 14.992H57.1565C61.0445 14.992 62.9885 16.936 62.9885 20.824V28.168C62.9885 32.056 61.0445 34 57.1565 34H52.1165C48.2285 34 46.2845 32.056 46.2845 28.168ZM51.2525 28.528C51.2525 29.296 51.6365 29.68 52.4045 29.68H56.8685C57.6365 29.68 58.0205 29.296 58.0205 28.528V20.464C58.0205 19.696 57.6365 19.312 56.8685 19.312H52.4045C51.6365 19.312 51.2525 19.696 51.2525 20.464V28.528ZM66.0772 15.748L66.6172 14.992H70.7932L73.6732 29.68H73.9252L77.3812 14.992H82.8892L86.3812 29.68H86.6332L89.5132 14.992H93.6892L94.2292 15.748L90.4132 34H82.9972L80.1532 20.932L77.3092 34H69.8932L66.0772 15.748ZM106.16 11.86V7H111.344V11.86H106.16ZM106.268 34V14.992H111.236V34H106.268ZM116.284 28.168V9.16H121.252V14.992H127.444V19.312H121.252V28.528C121.252 29.296 121.636 29.68 122.404 29.68H127.804V32.38L125.644 34H122.116C118.228 34 116.284 32.056 116.284 28.168ZM138.534 15.748L139.074 14.992H143.25L146.13 29.68H146.382L149.838 14.992H155.346L158.838 29.68H159.09L161.97 14.992H166.146L166.686 15.748L162.87 34H155.454L152.61 20.932L149.766 34H142.35L138.534 15.748ZM169.788 28.168V20.824C169.788 16.936 171.732 14.992 175.62 14.992H180.66C184.548 14.992 186.492 16.936 186.492 20.824V28.168C186.492 32.056 184.548 34 180.66 34H175.62C171.732 34 169.788 32.056 169.788 28.168ZM174.756 28.528C174.756 29.296 175.14 29.68 175.908 29.68H180.372C181.14 29.68 181.524 29.296 181.524 28.528V20.464C181.524 19.696 181.14 19.312 180.372 19.312H175.908C175.14 19.312 174.756 19.696 174.756 20.464V28.528ZM191.237 34V17.44C192.125 15.808 193.829 14.992 196.349 14.992H200.237L202.397 16.612V19.312H197.681C196.961 19.312 196.469 19.492 196.205 19.852V34H191.237ZM205.936 34V7.36H210.904V22.156L217.492 14.992H222.388L222.784 15.82L216.196 22.912L223.288 33.172L222.892 34H218.032L212.92 26.476L210.904 28.672V34H205.936ZM226.171 32.38V29.68H234.451C235.267 29.68 235.675 29.224 235.675 28.312C235.675 27.376 235.339 26.848 234.667 26.728L230.779 26.08C227.707 25.552 226.171 23.776 226.171 20.752C226.171 16.912 228.115 14.992 232.003 14.992H237.583L239.743 16.612V19.312H232.291C231.475 19.312 231.067 19.768 231.067 20.68C231.067 21.64 231.439 22.18 232.183 22.3L236.035 22.948C239.083 23.452 240.607 25.204 240.607 28.204C240.607 32.068 238.651 34 234.739 34H228.331L226.171 32.38Z" fill="#F5FBF2"/>
<path d="M28.848 200.92C30.288 200.92 31.552 201.168 32.64 201.664C33.728 202.16 34.656 202.896 35.424 203.872L33.576 206.008C32.92 205.176 32.2 204.568 31.416 204.184C30.648 203.784 29.752 203.584 28.728 203.584C28.056 203.584 27.496 203.672 27.048 203.848C26.616 204.024 26.296 204.256 26.088 204.544C25.896 204.832 25.8 205.152 25.8 205.504C25.8 205.936 25.968 206.304 26.304 206.608C26.64 206.896 27.216 207.136 28.032 207.328L30.984 208C32.552 208.352 33.672 208.88 34.344 209.584C35.032 210.272 35.376 211.168 35.376 212.272C35.376 213.312 35.104 214.208 34.56 214.96C34.016 215.696 33.256 216.264 32.28 216.664C31.304 217.048 30.184 217.24 28.92 217.24C27.816 217.24 26.8 217.112 25.872 216.856C24.96 216.584 24.144 216.216 23.424 215.752C22.704 215.288 22.104 214.752 21.624 214.144L23.496 211.912C23.864 212.424 24.32 212.88 24.864 213.28C25.408 213.68 26.024 214 26.712 214.24C27.416 214.464 28.152 214.576 28.92 214.576C29.576 214.576 30.128 214.504 30.576 214.36C31.04 214.2 31.384 213.984 31.608 213.712C31.848 213.424 31.968 213.08 31.968 212.68C31.968 212.264 31.824 211.912 31.536 211.624C31.264 211.32 30.752 211.088 30 210.928L26.784 210.208C25.856 209.984 25.056 209.696 24.384 209.344C23.728 208.976 23.224 208.512 22.872 207.952C22.536 207.376 22.368 206.696 22.368 205.912C22.368 204.968 22.624 204.12 23.136 203.368C23.648 202.616 24.384 202.024 25.344 201.592C26.32 201.144 27.488 200.92 28.848 200.92ZM43.7413 217.24C42.4773 217.24 41.3733 216.992 40.4293 216.496C39.5013 216 38.7813 215.288 38.2693 214.36C37.7573 213.432 37.5013 212.312 37.5013 211C37.5013 209.688 37.7573 208.568 38.2693 207.64C38.7813 206.712 39.4933 206 40.4053 205.504C41.3333 205.008 42.3893 204.76 43.5733 204.76C44.7893 204.76 45.8213 205.008 46.6693 205.504C47.5173 205.984 48.1653 206.648 48.6133 207.496C49.0613 208.328 49.2853 209.28 49.2853 210.352C49.2853 210.672 49.2773 210.976 49.2613 211.264C49.2453 211.552 49.2213 211.808 49.1893 212.032H39.6133V209.752H47.7493L46.1653 210.328C46.1653 209.32 45.9333 208.544 45.4693 208C45.0213 207.456 44.3813 207.184 43.5493 207.184C42.9413 207.184 42.4133 207.328 41.9653 207.616C41.5333 207.904 41.2053 208.336 40.9813 208.912C40.7573 209.472 40.6453 210.184 40.6453 211.048C40.6453 211.896 40.7653 212.6 41.0053 213.16C41.2613 213.704 41.6133 214.112 42.0613 214.384C42.5253 214.656 43.0773 214.792 43.7173 214.792C44.4213 214.792 44.9893 214.656 45.4213 214.384C45.8533 214.112 46.1893 213.736 46.4293 213.256L49.0453 214.264C48.7893 214.888 48.3973 215.424 47.8693 215.872C47.3573 216.32 46.7413 216.664 46.0213 216.904C45.3173 217.128 44.5573 217.24 43.7413 217.24ZM56.1088 201.328V213.088C56.1088 213.664 56.2528 214.088 56.5408 214.36C56.8448 214.616 57.2528 214.744 57.7648 214.744C58.1648 214.744 58.5168 214.688 58.8208 214.576C59.1248 214.448 59.3968 214.28 59.6368 214.072L60.1648 216.256C59.7808 216.56 59.3008 216.8 58.7248 216.976C58.1488 217.152 57.5408 217.24 56.9008 217.24C56.1008 217.24 55.3888 217.12 54.7648 216.88C54.1568 216.64 53.6768 216.256 53.3248 215.728C52.9888 215.2 52.8208 214.496 52.8208 213.616V202.24L56.1088 201.328ZM59.9488 205V207.448H50.6128V205H59.9488ZM83.0693 201.16V210.76C83.0693 212.92 82.4933 214.544 81.3412 215.632C80.1893 216.704 78.5093 217.24 76.3013 217.24C74.0933 217.24 72.4133 216.704 71.2613 215.632C70.1093 214.544 69.5333 212.92 69.5333 210.76V201.16H72.8453V210.616C72.8453 211.944 73.1253 212.928 73.6853 213.568C74.2613 214.208 75.1333 214.528 76.3013 214.528C77.4693 214.528 78.3333 214.208 78.8933 213.568C79.4533 212.928 79.7333 211.944 79.7333 210.616V201.16H83.0693ZM86.478 222.04V205H89.43L89.646 208.816L89.238 208.384C89.382 207.68 89.646 207.056 90.03 206.512C90.43 205.968 90.934 205.544 91.542 205.24C92.15 204.92 92.83 204.76 93.582 204.76C94.558 204.76 95.43 205.008 96.198 205.504C96.966 206 97.566 206.712 97.998 207.64C98.446 208.552 98.67 209.664 98.67 210.976C98.67 212.288 98.446 213.416 97.998 214.36C97.55 215.288 96.934 216 96.15 216.496C95.382 216.992 94.502 217.24 93.51 217.24C92.454 217.24 91.574 216.944 90.87 216.352C90.182 215.76 89.71 215.016 89.454 214.12L89.766 213.616V222.04H86.478ZM92.55 214.72C93.43 214.72 94.118 214.408 94.614 213.784C95.126 213.144 95.382 212.216 95.382 211C95.382 209.784 95.134 208.864 94.638 208.24C94.158 207.6 93.478 207.28 92.598 207.28C92.038 207.28 91.542 207.432 91.11 207.736C90.694 208.024 90.366 208.448 90.126 209.008C89.886 209.552 89.766 210.216 89.766 211C89.766 211.768 89.878 212.432 90.102 212.992C90.326 213.552 90.646 213.984 91.062 214.288C91.494 214.576 91.99 214.72 92.55 214.72ZM121.12 201.16L115.504 211.072V217H112.192V211.072L106.576 201.16H110.104L112.648 205.912L113.848 208.384L115.072 205.912L117.616 201.16H121.12ZM126.263 204.76C127.479 204.76 128.543 205.008 129.455 205.504C130.383 206 131.103 206.712 131.615 207.64C132.143 208.568 132.407 209.688 132.407 211C132.407 212.296 132.143 213.416 131.615 214.36C131.103 215.288 130.383 216 129.455 216.496C128.543 216.992 127.479 217.24 126.263 217.24C125.063 217.24 123.999 216.992 123.071 216.496C122.143 216 121.415 215.288 120.887 214.36C120.375 213.416 120.119 212.296 120.119 211C120.119 209.688 120.375 208.568 120.887 207.64C121.415 206.712 122.143 206 123.071 205.504C123.999 205.008 125.063 204.76 126.263 204.76ZM126.263 207.208C125.655 207.208 125.135 207.352 124.703 207.64C124.287 207.912 123.967 208.328 123.743 208.888C123.519 209.448 123.407 210.152 123.407 211C123.407 211.848 123.519 212.552 123.743 213.112C123.967 213.672 124.287 214.096 124.703 214.384C125.135 214.656 125.655 214.792 126.263 214.792C126.855 214.792 127.359 214.656 127.775 214.384C128.207 214.096 128.535 213.672 128.759 213.112C128.983 212.552 129.095 211.848 129.095 211C129.095 210.152 128.983 209.448 128.759 208.888C128.535 208.328 128.207 207.912 127.775 207.64C127.359 207.352 126.855 207.208 126.263 207.208ZM139.334 217.24C138.534 217.24 137.814 217.096 137.174 216.808C136.534 216.52 136.022 216.064 135.638 215.44C135.27 214.8 135.086 213.976 135.086 212.968V205H138.374V212.176C138.374 213.104 138.566 213.752 138.95 214.12C139.334 214.472 139.886 214.648 140.606 214.648C140.942 214.648 141.27 214.592 141.59 214.48C141.91 214.352 142.19 214.16 142.43 213.904C142.686 213.648 142.886 213.32 143.03 212.92C143.174 212.504 143.246 212.016 143.246 211.456V205H146.534V217H143.606L143.486 214.912C143.086 215.712 142.534 216.304 141.83 216.688C141.142 217.056 140.31 217.24 139.334 217.24ZM149.994 217V205H152.85L153.066 207.352C153.386 206.52 153.85 205.88 154.458 205.432C155.082 204.984 155.858 204.76 156.786 204.76C157.058 204.76 157.306 204.784 157.53 204.832C157.754 204.88 157.938 204.944 158.082 205.024L157.698 207.784C157.538 207.72 157.338 207.672 157.098 207.64C156.874 207.608 156.578 207.592 156.21 207.592C155.73 207.592 155.266 207.712 154.818 207.952C154.37 208.176 154.002 208.528 153.714 209.008C153.426 209.472 153.282 210.064 153.282 210.784V217H149.994ZM169.853 217L165.245 201.16H168.773L171.893 214.24L175.061 201.16H178.229L181.445 214.24L184.541 201.16H187.925L183.317 217H179.597L177.389 208.36L176.645 204.616H176.597L175.853 208.36L173.669 217H169.853ZM196.021 209.344C196.021 208.656 195.821 208.12 195.421 207.736C195.037 207.352 194.525 207.16 193.885 207.16C193.293 207.16 192.773 207.312 192.325 207.616C191.877 207.92 191.549 208.424 191.341 209.128L188.533 208.264C188.805 207.208 189.397 206.36 190.309 205.72C191.237 205.08 192.477 204.76 194.029 204.76C195.085 204.76 196.005 204.928 196.789 205.264C197.573 205.584 198.181 206.072 198.613 206.728C199.061 207.384 199.285 208.208 199.285 209.2V214.072C199.285 214.68 199.573 214.984 200.149 214.984C200.421 214.984 200.677 214.944 200.917 214.864L200.725 216.904C200.309 217.112 199.789 217.216 199.165 217.216C198.605 217.216 198.101 217.12 197.653 216.928C197.205 216.736 196.853 216.448 196.597 216.064C196.341 215.664 196.213 215.168 196.213 214.576V214.48L196.789 214.384C196.693 214.992 196.429 215.512 195.997 215.944C195.565 216.36 195.037 216.68 194.413 216.904C193.805 217.128 193.173 217.24 192.517 217.24C191.701 217.24 190.997 217.12 190.405 216.88C189.813 216.624 189.357 216.256 189.037 215.776C188.717 215.296 188.557 214.704 188.557 214C188.557 213.104 188.845 212.376 189.421 211.816C189.997 211.24 190.821 210.848 191.893 210.64L196.405 209.728L196.381 211.768L193.501 212.344C192.957 212.456 192.541 212.608 192.253 212.8C191.981 212.976 191.845 213.272 191.845 213.688C191.845 214.088 191.989 214.392 192.277 214.6C192.581 214.808 192.941 214.912 193.357 214.912C193.693 214.912 194.021 214.872 194.341 214.792C194.661 214.712 194.949 214.584 195.205 214.408C195.461 214.232 195.661 213.992 195.805 213.688C195.949 213.384 196.021 213.016 196.021 212.584V209.344ZM206.202 199.744V213.304C206.202 213.864 206.298 214.256 206.49 214.48C206.682 214.704 207.002 214.816 207.45 214.816C207.722 214.816 207.946 214.8 208.122 214.768C208.298 214.72 208.522 214.656 208.794 214.576L208.506 216.736C208.234 216.896 207.89 217.016 207.474 217.096C207.074 217.192 206.674 217.24 206.274 217.24C205.106 217.24 204.25 216.96 203.706 216.4C203.178 215.824 202.914 214.912 202.914 213.664V199.744H206.202ZM213.866 199.744V213.304C213.866 213.864 213.962 214.256 214.154 214.48C214.346 214.704 214.666 214.816 215.114 214.816C215.386 214.816 215.61 214.8 215.786 214.768C215.962 214.72 216.186 214.656 216.458 214.576L216.17 216.736C215.898 216.896 215.554 217.016 215.138 217.096C214.738 217.192 214.338 217.24 213.938 217.24C212.77 217.24 211.914 216.96 211.37 216.4C210.842 215.824 210.578 214.912 210.578 213.664V199.744H213.866ZM223.859 217.24C222.595 217.24 221.491 216.992 220.547 216.496C219.619 216 218.899 215.288 218.387 214.36C217.875 213.432 217.619 212.312 217.619 211C217.619 209.688 217.875 208.568 218.387 207.64C218.899 206.712 219.611 206 220.523 205.504C221.451 205.008 222.507 204.76 223.691 204.76C224.907 204.76 225.939 205.008 226.787 205.504C227.635 205.984 228.283 206.648 228.731 207.496C229.179 208.328 229.403 209.28 229.403 210.352C229.403 210.672 229.395 210.976 229.379 211.264C229.363 211.552 229.339 211.808 229.307 212.032H219.73V209.752H227.867L226.283 210.328C226.283 209.32 226.051 208.544 225.587 208C225.139 207.456 224.499 207.184 223.667 207.184C223.059 207.184 222.531 207.328 222.083 207.616C221.651 207.904 221.323 208.336 221.099 208.912C220.875 209.472 220.763 210.184 220.763 211.048C220.763 211.896 220.883 212.6 221.123 213.16C221.379 213.704 221.731 214.112 222.179 214.384C222.643 214.656 223.195 214.792 223.835 214.792C224.539 214.792 225.107 214.656 225.539 214.384C225.971 214.112 226.307 213.736 226.547 213.256L229.163 214.264C228.907 214.888 228.515 215.424 227.987 215.872C227.475 216.32 226.859 216.664 226.139 216.904C225.435 217.128 224.675 217.24 223.859 217.24ZM236.226 201.328V213.088C236.226 213.664 236.37 214.088 236.658 214.36C236.962 214.616 237.37 214.744 237.882 214.744C238.282 214.744 238.634 214.688 238.938 214.576C239.242 214.448 239.514 214.28 239.754 214.072L240.282 216.256C239.898 216.56 239.418 216.8 238.842 216.976C238.266 217.152 237.658 217.24 237.018 217.24C236.218 217.24 235.506 217.12 234.882 216.88C234.274 216.64 233.794 216.256 233.442 215.728C233.106 215.2 232.938 214.496 232.938 213.616V202.24L236.226 201.328ZM240.066 205V207.448H230.73V205H240.066Z" fill="#FFCE4E"/>
<circle cx="131" cy="135" r="36" fill="#372839"/>
<path d="M145 130H144V124C144 123.735 143.895 123.48 143.707 123.293C143.519 123.105 143.265 123 143 123H119C118.763 123.004 118.533 122.924 118.35 122.773C118.166 122.623 118.042 122.413 118 122.18V121.82C118.042 121.587 118.166 121.377 118.35 121.227C118.533 121.076 118.763 120.996 119 121H142.58C142.845 121 143.099 120.895 143.287 120.707C143.475 120.52 143.58 120.265 143.58 120C143.58 119.735 143.475 119.48 143.287 119.293C143.099 119.105 142.845 119 142.58 119H119C118.204 119 117.441 119.316 116.879 119.879C116.316 120.441 116 121.204 116 122C115.993 122.12 115.993 122.24 116 122.36V142.93C116.004 143.468 116.114 144.001 116.323 144.497C116.533 144.993 116.838 145.442 117.222 145.82C117.605 146.198 118.06 146.497 118.559 146.699C119.058 146.902 119.591 147.004 120.13 147H143C143.265 147 143.519 146.895 143.707 146.707C143.895 146.52 144 146.265 144 146V140H145C145.265 140 145.519 139.895 145.707 139.707C145.895 139.52 146 139.265 146 139V131C146 130.735 145.895 130.48 145.707 130.293C145.519 130.105 145.265 130 145 130ZM142 145H120.13C119.574 145.005 119.038 144.791 118.639 144.403C118.24 144.016 118.01 143.486 118 142.93V124.88C118.324 124.974 118.662 125.015 119 125H142V130H135C133.674 130 132.402 130.527 131.464 131.464C130.527 132.402 130 133.674 130 135C130 136.326 130.527 137.598 131.464 138.536C132.402 139.473 133.674 140 135 140H142V145ZM144 138H135C134.204 138 133.441 137.684 132.879 137.121C132.316 136.559 132 135.796 132 135C132 134.204 132.316 133.441 132.879 132.879C133.441 132.316 134.204 132 135 132H144V138Z" fill="#908294"/>
<path d="M136.01 136.5C136.839 136.5 137.51 135.828 137.51 135C137.51 134.172 136.839 133.5 136.01 133.5C135.182 133.5 134.51 134.172 134.51 135C134.51 135.828 135.182 136.5 136.01 136.5Z" fill="#908294"/>
<path d="M132 247C132 246.448 131.552 246 131 246C130.448 246 130 246.448 130 247L132 247ZM131 328.774L136.774 323L131 317.227L125.227 323L131 328.774ZM130 253.333C130 253.886 130.448 254.333 131 254.333C131.552 254.333 132 253.886 132 253.333L130 253.333ZM132 266C132 265.448 131.552 265 131 265C130.448 265 130 265.448 130 266L132 266ZM130 278.667C130 279.219 130.448 279.667 131 279.667C131.552 279.667 132 279.219 132 278.667L130 278.667ZM132 291.333C132 290.781 131.552 290.333 131 290.333C130.448 290.333 130 290.781 130 291.333L132 291.333ZM130 304C130 304.552 130.448 305 131 305C131.552 305 132 304.552 132 304L130 304ZM132 316.667C132 316.114 131.552 315.667 131 315.667C130.448 315.667 130 316.114 130 316.667L132 316.667ZM130 247L130 253.333L132 253.333L132 247L130 247ZM130 266L130 278.667L132 278.667L132 266L130 266ZM130 291.333L130 304L132 304L132 291.333L130 291.333ZM130 316.667L130 323L132 323L132 316.667L130 316.667Z" fill="#794187"/>
<path d="M15.624 464.632C15.32 465.656 14.84 466.512 14.184 467.2C13.528 467.888 12.752 468.4 11.856 468.736C10.96 469.072 9.976 469.24 8.904 469.24C7.336 469.24 5.976 468.912 4.824 468.256C3.688 467.6 2.808 466.664 2.184 465.448C1.576 464.232 1.272 462.776 1.272 461.08C1.272 459.384 1.576 457.928 2.184 456.712C2.808 455.496 3.688 454.56 4.824 453.904C5.976 453.248 7.32 452.92 8.856 452.92C9.944 452.92 10.928 453.072 11.808 453.376C12.688 453.664 13.432 454.112 14.04 454.72C14.664 455.328 15.12 456.096 15.408 457.024L12.408 458.296C12.136 457.336 11.72 456.656 11.16 456.256C10.6 455.84 9.88 455.632 9 455.632C8.136 455.632 7.376 455.84 6.72 456.256C6.08 456.672 5.584 457.288 5.232 458.104C4.88 458.904 4.704 459.896 4.704 461.08C4.704 462.248 4.864 463.24 5.184 464.056C5.52 464.872 6.008 465.488 6.648 465.904C7.288 466.32 8.072 466.528 9 466.528C9.864 466.528 10.608 466.296 11.232 465.832C11.872 465.368 12.32 464.664 12.576 463.72L15.624 464.632ZM18.1108 469V457H20.9668L21.1828 459.352C21.5028 458.52 21.9668 457.88 22.5748 457.432C23.1988 456.984 23.9748 456.76 24.9028 456.76C25.1748 456.76 25.4228 456.784 25.6468 456.832C25.8708 456.88 26.0548 456.944 26.1988 457.024L25.8148 459.784C25.6548 459.72 25.4548 459.672 25.2148 459.64C24.9908 459.608 24.6948 459.592 24.3268 459.592C23.8468 459.592 23.3828 459.712 22.9348 459.952C22.4868 460.176 22.1188 460.528 21.8308 461.008C21.5428 461.472 21.3988 462.064 21.3988 462.784V469H18.1108ZM33.5694 469.24C32.3054 469.24 31.2014 468.992 30.2574 468.496C29.3294 468 28.6094 467.288 28.0974 466.36C27.5854 465.432 27.3294 464.312 27.3294 463C27.3294 461.688 27.5854 460.568 28.0974 459.64C28.6094 458.712 29.3214 458 30.2334 457.504C31.1614 457.008 32.2174 456.76 33.4014 456.76C34.6174 456.76 35.6494 457.008 36.4974 457.504C37.3454 457.984 37.9934 458.648 38.4414 459.496C38.8894 460.328 39.1134 461.28 39.1134 462.352C39.1134 462.672 39.1054 462.976 39.0894 463.264C39.0734 463.552 39.0494 463.808 39.0174 464.032H29.4414V461.752H37.5774L35.9934 462.328C35.9934 461.32 35.7614 460.544 35.2974 460C34.8494 459.456 34.2094 459.184 33.3774 459.184C32.7694 459.184 32.2414 459.328 31.7934 459.616C31.3614 459.904 31.0334 460.336 30.8094 460.912C30.5854 461.472 30.4734 462.184 30.4734 463.048C30.4734 463.896 30.5934 464.6 30.8334 465.16C31.0894 465.704 31.4414 466.112 31.8894 466.384C32.3534 466.656 32.9054 466.792 33.5454 466.792C34.2494 466.792 34.8174 466.656 35.2494 466.384C35.6814 466.112 36.0174 465.736 36.2574 465.256L38.8734 466.264C38.6174 466.888 38.2254 467.424 37.6974 467.872C37.1854 468.32 36.5694 468.664 35.8494 468.904C35.1454 469.128 34.3854 469.24 33.5694 469.24ZM48.7399 461.344C48.7399 460.656 48.5399 460.12 48.1399 459.736C47.7559 459.352 47.2439 459.16 46.6039 459.16C46.0119 459.16 45.4919 459.312 45.0439 459.616C44.5959 459.92 44.2679 460.424 44.0599 461.128L41.2519 460.264C41.5239 459.208 42.1159 458.36 43.0279 457.72C43.9559 457.08 45.1959 456.76 46.7479 456.76C47.8039 456.76 48.7239 456.928 49.5079 457.264C50.2919 457.584 50.8999 458.072 51.3319 458.728C51.7799 459.384 52.0039 460.208 52.0039 461.2V466.072C52.0039 466.68 52.2919 466.984 52.8679 466.984C53.1399 466.984 53.3959 466.944 53.6359 466.864L53.4439 468.904C53.0279 469.112 52.5079 469.216 51.8839 469.216C51.3239 469.216 50.8199 469.12 50.3719 468.928C49.9239 468.736 49.5719 468.448 49.3159 468.064C49.0599 467.664 48.9319 467.168 48.9319 466.576V466.48L49.5079 466.384C49.4119 466.992 49.1479 467.512 48.7159 467.944C48.2839 468.36 47.7559 468.68 47.1319 468.904C46.5239 469.128 45.8919 469.24 45.2359 469.24C44.4199 469.24 43.7159 469.12 43.1239 468.88C42.5319 468.624 42.0759 468.256 41.7559 467.776C41.4359 467.296 41.2759 466.704 41.2759 466C41.2759 465.104 41.5639 464.376 42.1399 463.816C42.7159 463.24 43.5399 462.848 44.6119 462.64L49.1239 461.728L49.0999 463.768L46.2199 464.344C45.6759 464.456 45.2599 464.608 44.9719 464.8C44.6999 464.976 44.5639 465.272 44.5639 465.688C44.5639 466.088 44.7079 466.392 44.9959 466.6C45.2999 466.808 45.6599 466.912 46.0759 466.912C46.4119 466.912 46.7399 466.872 47.0599 466.792C47.3799 466.712 47.6679 466.584 47.9239 466.408C48.1799 466.232 48.3799 465.992 48.5239 465.688C48.6679 465.384 48.7399 465.016 48.7399 464.584V461.344ZM59.4604 453.328V465.088C59.4604 465.664 59.6044 466.088 59.8924 466.36C60.1964 466.616 60.6044 466.744 61.1164 466.744C61.5164 466.744 61.8684 466.688 62.1724 466.576C62.4764 466.448 62.7484 466.28 62.9884 466.072L63.5164 468.256C63.1324 468.56 62.6524 468.8 62.0764 468.976C61.5004 469.152 60.8924 469.24 60.2524 469.24C59.4524 469.24 58.7404 469.12 58.1164 468.88C57.5084 468.64 57.0284 468.256 56.6764 467.728C56.3404 467.2 56.1724 466.496 56.1724 465.616V454.24L59.4604 453.328ZM63.3004 457V459.448H53.9644V457H63.3004ZM71.0929 469.24C69.8289 469.24 68.7249 468.992 67.7809 468.496C66.8529 468 66.1329 467.288 65.6209 466.36C65.1089 465.432 64.8529 464.312 64.8529 463C64.8529 461.688 65.1089 460.568 65.6209 459.64C66.1329 458.712 66.8449 458 67.7569 457.504C68.6849 457.008 69.7409 456.76 70.9249 456.76C72.1409 456.76 73.1729 457.008 74.0209 457.504C74.8689 457.984 75.5169 458.648 75.9649 459.496C76.4129 460.328 76.6369 461.28 76.6369 462.352C76.6369 462.672 76.6289 462.976 76.6129 463.264C76.5969 463.552 76.5729 463.808 76.5409 464.032H66.9649V461.752H75.1009L73.5169 462.328C73.5169 461.32 73.2849 460.544 72.8209 460C72.3729 459.456 71.7329 459.184 70.9009 459.184C70.2929 459.184 69.7649 459.328 69.3169 459.616C68.8849 459.904 68.5569 460.336 68.3329 460.912C68.1089 461.472 67.9969 462.184 67.9969 463.048C67.9969 463.896 68.1169 464.6 68.3569 465.16C68.6129 465.704 68.9649 466.112 69.4129 466.384C69.8769 466.656 70.4289 466.792 71.0689 466.792C71.7729 466.792 72.3409 466.656 72.7729 466.384C73.2049 466.112 73.5409 465.736 73.7809 465.256L76.3969 466.264C76.1409 466.888 75.7489 467.424 75.2209 467.872C74.7089 468.32 74.0929 468.664 73.3729 468.904C72.6689 469.128 71.9089 469.24 71.0929 469.24ZM99.0184 453.16L93.4024 463.072V469H90.0904V463.072L84.4744 453.16H88.0024L90.5464 457.912L91.7464 460.384L92.9704 457.912L95.5144 453.16H99.0184ZM104.161 456.76C105.377 456.76 106.441 457.008 107.353 457.504C108.281 458 109.001 458.712 109.513 459.64C110.041 460.568 110.305 461.688 110.305 463C110.305 464.296 110.041 465.416 109.513 466.36C109.001 467.288 108.281 468 107.353 468.496C106.441 468.992 105.377 469.24 104.161 469.24C102.961 469.24 101.897 468.992 100.969 468.496C100.041 468 99.3129 467.288 98.7849 466.36C98.2729 465.416 98.0169 464.296 98.0169 463C98.0169 461.688 98.2729 460.568 98.7849 459.64C99.3129 458.712 100.041 458 100.969 457.504C101.897 457.008 102.961 456.76 104.161 456.76ZM104.161 459.208C103.553 459.208 103.033 459.352 102.601 459.64C102.185 459.912 101.865 460.328 101.641 460.888C101.417 461.448 101.305 462.152 101.305 463C101.305 463.848 101.417 464.552 101.641 465.112C101.865 465.672 102.185 466.096 102.601 466.384C103.033 466.656 103.553 466.792 104.161 466.792C104.753 466.792 105.257 466.656 105.673 466.384C106.105 466.096 106.433 465.672 106.657 465.112C106.881 464.552 106.993 463.848 106.993 463C106.993 462.152 106.881 461.448 106.657 460.888C106.433 460.328 106.105 459.912 105.673 459.64C105.257 459.352 104.753 459.208 104.161 459.208ZM117.232 469.24C116.432 469.24 115.712 469.096 115.072 468.808C114.432 468.52 113.92 468.064 113.536 467.44C113.168 466.8 112.984 465.976 112.984 464.968V457H116.272V464.176C116.272 465.104 116.464 465.752 116.848 466.12C117.232 466.472 117.784 466.648 118.504 466.648C118.84 466.648 119.168 466.592 119.488 466.48C119.808 466.352 120.088 466.16 120.328 465.904C120.584 465.648 120.784 465.32 120.928 464.92C121.072 464.504 121.144 464.016 121.144 463.456V457H124.432V469H121.504L121.384 466.912C120.984 467.712 120.432 468.304 119.728 468.688C119.04 469.056 118.208 469.24 117.232 469.24ZM127.892 469V457H130.748L130.964 459.352C131.284 458.52 131.748 457.88 132.356 457.432C132.98 456.984 133.756 456.76 134.684 456.76C134.956 456.76 135.204 456.784 135.428 456.832C135.652 456.88 135.836 456.944 135.98 457.024L135.596 459.784C135.436 459.72 135.236 459.672 134.996 459.64C134.772 459.608 134.476 459.592 134.108 459.592C133.628 459.592 133.164 459.712 132.716 459.952C132.268 460.176 131.9 460.528 131.612 461.008C131.324 461.472 131.18 462.064 131.18 462.784V469H127.892ZM158.804 464.632C158.5 465.656 158.02 466.512 157.364 467.2C156.708 467.888 155.932 468.4 155.036 468.736C154.14 469.072 153.156 469.24 152.084 469.24C150.516 469.24 149.156 468.912 148.004 468.256C146.868 467.6 145.988 466.664 145.364 465.448C144.756 464.232 144.452 462.776 144.452 461.08C144.452 459.384 144.756 457.928 145.364 456.712C145.988 455.496 146.868 454.56 148.004 453.904C149.156 453.248 150.5 452.92 152.036 452.92C153.124 452.92 154.108 453.072 154.988 453.376C155.868 453.664 156.612 454.112 157.22 454.72C157.844 455.328 158.3 456.096 158.588 457.024L155.588 458.296C155.316 457.336 154.9 456.656 154.34 456.256C153.78 455.84 153.06 455.632 152.18 455.632C151.316 455.632 150.556 455.84 149.9 456.256C149.26 456.672 148.764 457.288 148.412 458.104C148.06 458.904 147.884 459.896 147.884 461.08C147.884 462.248 148.044 463.24 148.364 464.056C148.7 464.872 149.188 465.488 149.828 465.904C150.468 466.32 151.252 466.528 152.18 466.528C153.044 466.528 153.788 466.296 154.412 465.832C155.052 465.368 155.5 464.664 155.756 463.72L158.804 464.632ZM166.763 456.76C167.979 456.76 169.043 457.008 169.955 457.504C170.883 458 171.603 458.712 172.115 459.64C172.643 460.568 172.907 461.688 172.907 463C172.907 464.296 172.643 465.416 172.115 466.36C171.603 467.288 170.883 468 169.955 468.496C169.043 468.992 167.979 469.24 166.763 469.24C165.563 469.24 164.499 468.992 163.571 468.496C162.643 468 161.915 467.288 161.387 466.36C160.875 465.416 160.619 464.296 160.619 463C160.619 461.688 160.875 460.568 161.387 459.64C161.915 458.712 162.643 458 163.571 457.504C164.499 457.008 165.563 456.76 166.763 456.76ZM166.763 459.208C166.155 459.208 165.635 459.352 165.203 459.64C164.787 459.912 164.467 460.328 164.243 460.888C164.019 461.448 163.907 462.152 163.907 463C163.907 463.848 164.019 464.552 164.243 465.112C164.467 465.672 164.787 466.096 165.203 466.384C165.635 466.656 166.155 466.792 166.763 466.792C167.355 466.792 167.859 466.656 168.275 466.384C168.707 466.096 169.035 465.672 169.259 465.112C169.483 464.552 169.595 463.848 169.595 463C169.595 462.152 169.483 461.448 169.259 460.888C169.035 460.328 168.707 459.912 168.275 459.64C167.859 459.352 167.355 459.208 166.763 459.208ZM178.898 451.744V465.304C178.898 465.864 178.994 466.256 179.186 466.48C179.378 466.704 179.698 466.816 180.146 466.816C180.418 466.816 180.642 466.8 180.818 466.768C180.994 466.72 181.218 466.656 181.49 466.576L181.202 468.736C180.93 468.896 180.586 469.016 180.17 469.096C179.77 469.192 179.37 469.24 178.97 469.24C177.802 469.24 176.946 468.96 176.402 468.4C175.874 467.824 175.61 466.912 175.61 465.664V451.744H178.898ZM186.562 451.744V465.304C186.562 465.864 186.658 466.256 186.85 466.48C187.042 466.704 187.362 466.816 187.81 466.816C188.082 466.816 188.306 466.8 188.482 466.768C188.658 466.72 188.882 466.656 189.154 466.576L188.866 468.736C188.594 468.896 188.25 469.016 187.834 469.096C187.434 469.192 187.034 469.24 186.634 469.24C185.466 469.24 184.61 468.96 184.066 468.4C183.538 467.824 183.274 466.912 183.274 465.664V451.744H186.562ZM196.554 469.24C195.29 469.24 194.186 468.992 193.242 468.496C192.314 468 191.594 467.288 191.082 466.36C190.57 465.432 190.314 464.312 190.314 463C190.314 461.688 190.57 460.568 191.082 459.64C191.594 458.712 192.306 458 193.218 457.504C194.146 457.008 195.202 456.76 196.386 456.76C197.602 456.76 198.634 457.008 199.482 457.504C200.33 457.984 200.978 458.648 201.426 459.496C201.874 460.328 202.098 461.28 202.098 462.352C202.098 462.672 202.09 462.976 202.074 463.264C202.058 463.552 202.034 463.808 202.002 464.032H192.426V461.752H200.562L198.978 462.328C198.978 461.32 198.746 460.544 198.282 460C197.834 459.456 197.194 459.184 196.362 459.184C195.754 459.184 195.226 459.328 194.778 459.616C194.346 459.904 194.018 460.336 193.794 460.912C193.57 461.472 193.458 462.184 193.458 463.048C193.458 463.896 193.578 464.6 193.818 465.16C194.074 465.704 194.426 466.112 194.874 466.384C195.338 466.656 195.89 466.792 196.53 466.792C197.234 466.792 197.802 466.656 198.234 466.384C198.666 466.112 199.002 465.736 199.242 465.256L201.858 466.264C201.602 466.888 201.21 467.424 200.682 467.872C200.17 468.32 199.554 468.664 198.834 468.904C198.13 469.128 197.37 469.24 196.554 469.24ZM210.332 456.76C211.404 456.76 212.308 456.92 213.044 457.24C213.796 457.544 214.396 457.968 214.844 458.512C215.308 459.04 215.636 459.632 215.828 460.288L212.756 461.392C212.596 460.672 212.324 460.128 211.94 459.76C211.556 459.392 211.036 459.208 210.38 459.208C209.772 459.208 209.252 459.352 208.82 459.64C208.388 459.912 208.06 460.336 207.836 460.912C207.612 461.472 207.5 462.176 207.5 463.024C207.5 463.872 207.612 464.576 207.836 465.136C208.076 465.696 208.412 466.112 208.844 466.384C209.292 466.656 209.812 466.792 210.404 466.792C210.884 466.792 211.292 466.712 211.628 466.552C211.964 466.376 212.236 466.128 212.444 465.808C212.668 465.488 212.82 465.104 212.9 464.656L215.876 465.616C215.7 466.336 215.372 466.968 214.892 467.512C214.412 468.056 213.796 468.48 213.044 468.784C212.292 469.088 211.42 469.24 210.428 469.24C209.196 469.24 208.108 468.992 207.164 468.496C206.22 468 205.492 467.288 204.98 466.36C204.468 465.432 204.212 464.312 204.212 463C204.212 461.688 204.468 460.568 204.98 459.64C205.492 458.712 206.212 458 207.14 457.504C208.068 457.008 209.132 456.76 210.332 456.76ZM222.679 453.328V465.088C222.679 465.664 222.823 466.088 223.111 466.36C223.415 466.616 223.823 466.744 224.335 466.744C224.735 466.744 225.087 466.688 225.391 466.576C225.695 466.448 225.967 466.28 226.207 466.072L226.735 468.256C226.351 468.56 225.871 468.8 225.295 468.976C224.719 469.152 224.111 469.24 223.471 469.24C222.671 469.24 221.959 469.12 221.335 468.88C220.727 468.64 220.247 468.256 219.895 467.728C219.559 467.2 219.391 466.496 219.391 465.616V454.24L222.679 453.328ZM226.519 457V459.448H217.183V457H226.519ZM230.4 455.272C229.712 455.272 229.2 455.128 228.864 454.84C228.528 454.536 228.36 454.096 228.36 453.52C228.36 452.928 228.528 452.488 228.864 452.2C229.2 451.896 229.712 451.744 230.4 451.744C231.088 451.744 231.6 451.896 231.936 452.2C232.272 452.488 232.44 452.928 232.44 453.52C232.44 454.096 232.272 454.536 231.936 454.84C231.6 455.128 231.088 455.272 230.4 455.272ZM232.032 457V469H228.744V457H232.032ZM240.989 456.76C242.205 456.76 243.269 457.008 244.181 457.504C245.109 458 245.829 458.712 246.341 459.64C246.869 460.568 247.133 461.688 247.133 463C247.133 464.296 246.869 465.416 246.341 466.36C245.829 467.288 245.109 468 244.181 468.496C243.269 468.992 242.205 469.24 240.989 469.24C239.789 469.24 238.725 468.992 237.797 468.496C236.869 468 236.141 467.288 235.613 466.36C235.101 465.416 234.845 464.296 234.845 463C234.845 461.688 235.101 460.568 235.613 459.64C236.141 458.712 236.869 458 237.797 457.504C238.725 457.008 239.789 456.76 240.989 456.76ZM240.989 459.208C240.381 459.208 239.861 459.352 239.429 459.64C239.013 459.912 238.693 460.328 238.469 460.888C238.245 461.448 238.133 462.152 238.133 463C238.133 463.848 238.245 464.552 238.469 465.112C238.693 465.672 239.013 466.096 239.429 466.384C239.861 466.656 240.381 466.792 240.989 466.792C241.581 466.792 242.085 466.656 242.501 466.384C242.933 466.096 243.261 465.672 243.485 465.112C243.709 464.552 243.821 463.848 243.821 463C243.821 462.152 243.709 461.448 243.485 460.888C243.261 460.328 242.933 459.912 242.501 459.64C242.085 459.352 241.581 459.208 240.989 459.208ZM249.884 469V457H252.836L253.028 460.6L252.62 460.216C252.812 459.432 253.116 458.784 253.532 458.272C253.948 457.76 254.452 457.384 255.044 457.144C255.652 456.888 256.316 456.76 257.036 456.76C257.868 456.76 258.604 456.92 259.244 457.24C259.9 457.56 260.412 458.048 260.78 458.704C261.164 459.344 261.356 460.152 261.356 461.128V469H258.068V462.064C258.068 461.04 257.868 460.336 257.468 459.952C257.068 459.552 256.548 459.352 255.908 459.352C255.46 459.352 255.02 459.464 254.588 459.688C254.172 459.896 253.828 460.24 253.556 460.72C253.3 461.2 253.172 461.84 253.172 462.64V469H249.884Z" fill="#FFCE4E"/>
<circle cx="131" cy="387" r="36" fill="#372839"/>
<g clip-path="url(#clip0_7_664)">
<path d="M118.625 376.875C118.327 376.875 118.04 376.756 117.83 376.545C117.619 376.335 117.5 376.048 117.5 375.75C117.5 375.452 117.619 375.165 117.83 374.955C118.04 374.744 118.327 374.625 118.625 374.625H143.375C143.673 374.625 143.96 374.744 144.17 374.955C144.381 375.165 144.5 375.452 144.5 375.75C144.5 376.048 144.381 376.335 144.17 376.545C143.96 376.756 143.673 376.875 143.375 376.875H118.625ZM123.125 372.375C122.827 372.375 122.54 372.256 122.33 372.045C122.119 371.835 122 371.548 122 371.25C122 370.952 122.119 370.665 122.33 370.455C122.54 370.244 122.827 370.125 123.125 370.125H138.875C139.173 370.125 139.46 370.244 139.67 370.455C139.881 370.665 140 370.952 140 371.25C140 371.548 139.881 371.835 139.67 372.045C139.46 372.256 139.173 372.375 138.875 372.375H123.125ZM113 398.25C113 399.145 113.356 400.004 113.989 400.636C114.621 401.269 115.48 401.625 116.375 401.625H145.625C146.52 401.625 147.379 401.269 148.011 400.636C148.644 400.004 149 399.145 149 398.25V382.5C149 381.605 148.644 380.746 148.011 380.114C147.379 379.481 146.52 379.125 145.625 379.125H116.375C115.48 379.125 114.621 379.481 113.989 380.114C113.356 380.746 113 381.605 113 382.5V398.25ZM116.375 399.375C116.077 399.375 115.79 399.256 115.58 399.045C115.369 398.835 115.25 398.548 115.25 398.25V382.5C115.25 382.202 115.369 381.915 115.58 381.705C115.79 381.494 116.077 381.375 116.375 381.375H145.625C145.923 381.375 146.21 381.494 146.42 381.705C146.631 381.915 146.75 382.202 146.75 382.5V398.25C146.75 398.548 146.631 398.835 146.42 399.045C146.21 399.256 145.923 399.375 145.625 399.375H116.375Z" fill="#908294"/>
</g>
<path d="M132 499C132 498.448 131.552 498 131 498C130.448 498 130 498.448 130 499H132ZM131 629.773L136.774 624L131 618.226L125.226 624L131 629.773ZM130 505.25C130 505.802 130.448 506.25 131 506.25C131.552 506.25 132 505.802 132 505.25H130ZM132 517.75C132 517.198 131.552 516.75 131 516.75C130.448 516.75 130 517.198 130 517.75H132ZM130 530.25C130 530.802 130.448 531.25 131 531.25C131.552 531.25 132 530.802 132 530.25H130ZM132 542.75C132 542.198 131.552 541.75 131 541.75C130.448 541.75 130 542.198 130 542.75H132ZM130 555.25C130 555.802 130.448 556.25 131 556.25C131.552 556.25 132 555.802 132 555.25H130ZM132 567.75C132 567.198 131.552 566.75 131 566.75C130.448 566.75 130 567.198 130 567.75H132ZM130 580.25C130 580.802 130.448 581.25 131 581.25C131.552 581.25 132 580.802 132 580.25H130ZM132 592.75C132 592.198 131.552 591.75 131 591.75C130.448 591.75 130 592.198 130 592.75H132ZM130 605.25C130 605.802 130.448 606.25 131 606.25C131.552 606.25 132 605.802 132 605.25H130ZM132 617.75C132 617.198 131.552 616.75 131 616.75C130.448 616.75 130 617.198 130 617.75H132ZM130 499V505.25H132V499H130ZM130 517.75V530.25H132V517.75H130ZM130 542.75V555.25H132V542.75H130ZM130 567.75V580.25H132V567.75H130ZM130 592.75V605.25H132V592.75H130ZM130 617.75V624H132V617.75H130Z" fill="#794187"/>
<circle cx="130" cy="684" r="36" fill="#372839"/>
<path d="M128.443 677.34L128.75 677.332H141.25C142.633 677.331 143.964 677.861 144.97 678.81C145.975 679.76 146.579 681.059 146.658 682.44L146.667 682.748V695.248C146.667 696.632 146.137 697.963 145.187 698.969C144.237 699.974 142.938 700.578 141.557 700.657L141.25 700.665H128.75C127.366 700.665 126.035 700.136 125.029 699.185C124.024 698.235 123.42 696.936 123.342 695.555L123.333 695.25V682.75C123.333 681.366 123.862 680.035 124.813 679.029C125.763 678.024 127.062 677.42 128.443 677.342V677.34ZM141.25 679.832H128.75C128.018 679.832 127.313 680.107 126.774 680.603C126.236 681.099 125.903 681.779 125.843 682.508L125.833 682.748V695.248C125.833 695.98 126.109 696.686 126.605 697.224C127.101 697.763 127.782 698.095 128.512 698.155L128.75 698.165H141.25C141.982 698.165 142.688 697.889 143.226 697.393C143.765 696.897 144.097 696.216 144.157 695.487L144.167 695.248V682.748C144.167 681.975 143.859 681.233 143.312 680.686C142.765 680.139 142.023 679.832 141.25 679.832ZM135 682.333C135.331 682.333 135.649 682.465 135.884 682.699C136.118 682.934 136.25 683.252 136.25 683.583V687.747H140.417C140.748 687.747 141.066 687.878 141.3 688.113C141.535 688.347 141.667 688.665 141.667 688.997C141.667 689.328 141.535 689.646 141.3 689.88C141.066 690.115 140.748 690.247 140.417 690.247H136.25V694.417C136.25 694.748 136.118 695.066 135.884 695.3C135.649 695.535 135.331 695.667 135 695.667C134.668 695.667 134.35 695.535 134.116 695.3C133.882 695.066 133.75 694.748 133.75 694.417V690.247H129.583C129.252 690.247 128.934 690.115 128.699 689.88C128.465 689.646 128.333 689.328 128.333 688.997C128.333 688.665 128.465 688.347 128.699 688.113C128.934 687.878 129.252 687.747 129.583 687.747H133.75V683.583C133.75 683.252 133.882 682.934 134.116 682.699C134.35 682.465 134.668 682.333 135 682.333ZM135.97 671.055L136.057 671.35L137.212 675.663H134.623L133.643 671.997C133.544 671.626 133.373 671.279 133.14 670.975C132.907 670.671 132.616 670.416 132.284 670.224C131.952 670.033 131.586 669.908 131.206 669.858C130.826 669.809 130.44 669.834 130.07 669.933L117.997 673.17C117.292 673.359 116.683 673.805 116.292 674.421C115.9 675.036 115.753 675.776 115.88 676.495L115.933 676.742L119.17 688.815C119.322 689.382 119.641 689.89 120.087 690.273C120.532 690.656 121.083 690.895 121.667 690.96V693.47C120.583 693.405 119.544 693.017 118.683 692.355C117.823 691.693 117.181 690.788 116.842 689.757L116.755 689.463L113.52 677.388C113.162 676.052 113.328 674.63 113.985 673.412C114.642 672.195 115.74 671.275 117.053 670.842L117.35 670.755L129.423 667.52C130.759 667.162 132.182 667.328 133.399 667.985C134.616 668.642 135.536 669.74 135.97 671.053V671.055Z" fill="#908294"/>
<path d="M61.816 766H58.384L57.064 762.136H50.992L49.672 766H46.288L52.072 750.16H56.032L61.816 766ZM51.736 759.688H56.32L54.016 752.776L51.736 759.688ZM68.0609 766.24C67.0689 766.24 66.1809 765.992 65.3969 765.496C64.6289 765 64.0209 764.288 63.5729 763.36C63.1409 762.432 62.9249 761.32 62.9249 760.024C62.9249 758.696 63.1569 757.568 63.6209 756.64C64.0849 755.696 64.7089 754.984 65.4929 754.504C66.2929 754.008 67.1889 753.76 68.1809 753.76C69.2369 753.76 70.1089 754.064 70.7969 754.672C71.4849 755.28 71.9329 756.064 72.1409 757.024L71.8289 757.408V748.744H75.1169V766H72.1649L71.9489 762.352L72.3569 762.544C72.2449 763.296 71.9889 763.952 71.5889 764.512C71.1889 765.056 70.6849 765.48 70.0769 765.784C69.4689 766.088 68.7969 766.24 68.0609 766.24ZM69.0209 763.72C69.5969 763.72 70.0929 763.576 70.5089 763.288C70.9249 762.984 71.2449 762.544 71.4689 761.968C71.7089 761.392 71.8289 760.704 71.8289 759.904C71.8289 759.136 71.7169 758.488 71.4929 757.96C71.2689 757.416 70.9489 757 70.5329 756.712C70.1169 756.424 69.6289 756.28 69.0689 756.28C68.1729 756.28 67.4689 756.6 66.9569 757.24C66.4609 757.864 66.2129 758.784 66.2129 760C66.2129 761.216 66.4609 762.144 66.9569 762.784C67.4529 763.408 68.1409 763.72 69.0209 763.72ZM83.1078 766.24C82.1158 766.24 81.2278 765.992 80.4438 765.496C79.6758 765 79.0678 764.288 78.6198 763.36C78.1878 762.432 77.9718 761.32 77.9718 760.024C77.9718 758.696 78.2038 757.568 78.6678 756.64C79.1318 755.696 79.7558 754.984 80.5398 754.504C81.3398 754.008 82.2358 753.76 83.2278 753.76C84.2838 753.76 85.1558 754.064 85.8438 754.672C86.5318 755.28 86.9798 756.064 87.1878 757.024L86.8758 757.408V748.744H90.1638V766H87.2118L86.9958 762.352L87.4038 762.544C87.2918 763.296 87.0358 763.952 86.6358 764.512C86.2358 765.056 85.7318 765.48 85.1238 765.784C84.5158 766.088 83.8438 766.24 83.1078 766.24ZM84.0678 763.72C84.6438 763.72 85.1398 763.576 85.5558 763.288C85.9718 762.984 86.2918 762.544 86.5158 761.968C86.7558 761.392 86.8758 760.704 86.8758 759.904C86.8758 759.136 86.7638 758.488 86.5398 757.96C86.3158 757.416 85.9958 757 85.5798 756.712C85.1638 756.424 84.6758 756.28 84.1158 756.28C83.2198 756.28 82.5158 756.6 82.0038 757.24C81.5078 757.864 81.2598 758.784 81.2598 760C81.2598 761.216 81.5078 762.144 82.0038 762.784C82.4998 763.408 83.1878 763.72 84.0678 763.72ZM113.214 750.16L107.598 760.072V766H104.286V760.072L98.6697 750.16H102.198L104.742 754.912L105.942 757.384L107.166 754.912L109.71 750.16H113.214ZM118.356 753.76C119.572 753.76 120.636 754.008 121.548 754.504C122.476 755 123.196 755.712 123.708 756.64C124.236 757.568 124.5 758.688 124.5 760C124.5 761.296 124.236 762.416 123.708 763.36C123.196 764.288 122.476 765 121.548 765.496C120.636 765.992 119.572 766.24 118.356 766.24C117.156 766.24 116.092 765.992 115.164 765.496C114.236 765 113.508 764.288 112.98 763.36C112.468 762.416 112.212 761.296 112.212 760C112.212 758.688 112.468 757.568 112.98 756.64C113.508 755.712 114.236 755 115.164 754.504C116.092 754.008 117.156 753.76 118.356 753.76ZM118.356 756.208C117.748 756.208 117.228 756.352 116.796 756.64C116.38 756.912 116.06 757.328 115.836 757.888C115.612 758.448 115.5 759.152 115.5 760C115.5 760.848 115.612 761.552 115.836 762.112C116.06 762.672 116.38 763.096 116.796 763.384C117.228 763.656 117.748 763.792 118.356 763.792C118.948 763.792 119.452 763.656 119.868 763.384C120.3 763.096 120.628 762.672 120.852 762.112C121.076 761.552 121.188 760.848 121.188 760C121.188 759.152 121.076 758.448 120.852 757.888C120.628 757.328 120.3 756.912 119.868 756.64C119.452 756.352 118.948 756.208 118.356 756.208ZM131.427 766.24C130.627 766.24 129.907 766.096 129.267 765.808C128.627 765.52 128.115 765.064 127.731 764.44C127.363 763.8 127.179 762.976 127.179 761.968V754H130.467V761.176C130.467 762.104 130.659 762.752 131.043 763.12C131.427 763.472 131.979 763.648 132.699 763.648C133.035 763.648 133.363 763.592 133.683 763.48C134.003 763.352 134.283 763.16 134.523 762.904C134.779 762.648 134.979 762.32 135.123 761.92C135.267 761.504 135.339 761.016 135.339 760.456V754H138.627V766H135.699L135.579 763.912C135.179 764.712 134.627 765.304 133.923 765.688C133.235 766.056 132.403 766.24 131.427 766.24ZM142.087 766V754H144.943L145.159 756.352C145.479 755.52 145.943 754.88 146.551 754.432C147.175 753.984 147.951 753.76 148.879 753.76C149.151 753.76 149.399 753.784 149.623 753.832C149.847 753.88 150.031 753.944 150.175 754.024L149.791 756.784C149.631 756.72 149.431 756.672 149.191 756.64C148.967 756.608 148.671 756.592 148.303 756.592C147.823 756.592 147.359 756.712 146.911 756.952C146.463 757.176 146.095 757.528 145.807 758.008C145.519 758.472 145.375 759.064 145.375 759.784V766H142.087ZM173.047 750.16V766H169.255L163.711 756.688L162.343 754.096H162.319L162.415 756.832V766H159.439V750.16H163.207L168.751 759.448L170.119 762.064H170.167L170.071 759.328V750.16H173.047ZM189.037 752.824H180.493V756.856H187.237V759.52H180.493V766H177.181V750.16H189.037V752.824ZM204.405 750.16V752.824H199.101V766H195.789V752.824H190.461V750.16H204.405ZM209.348 766.24C208.132 766.24 207.02 766.024 206.012 765.592C205.02 765.16 204.212 764.552 203.588 763.768L205.484 761.848C205.868 762.424 206.38 762.896 207.02 763.264C207.66 763.632 208.42 763.816 209.3 763.816C209.924 763.816 210.42 763.728 210.788 763.552C211.172 763.36 211.364 763.064 211.364 762.664C211.364 762.408 211.276 762.192 211.1 762.016C210.924 761.824 210.572 761.672 210.044 761.56L207.932 761.128C206.54 760.84 205.548 760.408 204.956 759.832C204.38 759.24 204.092 758.48 204.092 757.552C204.092 756.896 204.284 756.28 204.668 755.704C205.068 755.128 205.66 754.664 206.444 754.312C207.228 753.944 208.204 753.76 209.372 753.76C210.572 753.76 211.612 753.952 212.492 754.336C213.388 754.704 214.092 755.256 214.604 755.992L212.636 757.912C212.284 757.352 211.82 756.928 211.244 756.64C210.684 756.336 210.092 756.184 209.468 756.184C209.02 756.184 208.636 756.232 208.316 756.328C207.996 756.424 207.756 756.56 207.596 756.736C207.436 756.896 207.356 757.104 207.356 757.36C207.356 757.616 207.468 757.84 207.692 758.032C207.916 758.208 208.324 758.36 208.916 758.488L211.364 758.992C212.548 759.232 213.396 759.64 213.908 760.216C214.42 760.776 214.676 761.456 214.676 762.256C214.676 763.024 214.468 763.712 214.052 764.32C213.652 764.912 213.052 765.384 212.252 765.736C211.468 766.072 210.5 766.24 209.348 766.24Z" fill="#FFCE4E"/>
<path d="M132 796C132 795.448 131.552 795 131 795C130.448 795 130 795.448 130 796H132ZM131 926.773L136.774 921L131 915.226L125.226 921L131 926.773ZM130 802.25C130 802.802 130.448 803.25 131 803.25C131.552 803.25 132 802.802 132 802.25H130ZM132 814.75C132 814.198 131.552 813.75 131 813.75C130.448 813.75 130 814.198 130 814.75H132ZM130 827.25C130 827.802 130.448 828.25 131 828.25C131.552 828.25 132 827.802 132 827.25H130ZM132 839.75C132 839.198 131.552 838.75 131 838.75C130.448 838.75 130 839.198 130 839.75H132ZM130 852.25C130 852.802 130.448 853.25 131 853.25C131.552 853.25 132 852.802 132 852.25H130ZM132 864.75C132 864.198 131.552 863.75 131 863.75C130.448 863.75 130 864.198 130 864.75H132ZM130 877.25C130 877.802 130.448 878.25 131 878.25C131.552 878.25 132 877.802 132 877.25H130ZM132 889.75C132 889.198 131.552 888.75 131 888.75C130.448 888.75 130 889.198 130 889.75H132ZM130 902.25C130 902.802 130.448 903.25 131 903.25C131.552 903.25 132 902.802 132 902.25H130ZM132 914.75C132 914.198 131.552 913.75 131 913.75C130.448 913.75 130 914.198 130 914.75H132ZM130 796V802.25H132V796H130ZM130 814.75V827.25H132V814.75H130ZM130 839.75V852.25H132V839.75H130ZM130 864.75V877.25H132V864.75H130ZM130 889.75V902.25H132V889.75H130ZM130 914.75V921H132V914.75H130Z" fill="#794187"/>
<path d="M25.376 1060.34H33.728V1063H22.064V1047.16H25.376V1060.34ZM37.7981 1049.27C37.1101 1049.27 36.5981 1049.13 36.2621 1048.84C35.9261 1048.54 35.7581 1048.1 35.7581 1047.52C35.7581 1046.93 35.9261 1046.49 36.2621 1046.2C36.5981 1045.9 37.1101 1045.74 37.7981 1045.74C38.4861 1045.74 38.9981 1045.9 39.3341 1046.2C39.6701 1046.49 39.8381 1046.93 39.8381 1047.52C39.8381 1048.1 39.6701 1048.54 39.3341 1048.84C38.9981 1049.13 38.4861 1049.27 37.7981 1049.27ZM39.4301 1051V1063H36.1421V1051H39.4301ZM47.7155 1063.24C46.4995 1063.24 45.3875 1063.02 44.3795 1062.59C43.3875 1062.16 42.5795 1061.55 41.9555 1060.77L43.8515 1058.85C44.2355 1059.42 44.7475 1059.9 45.3875 1060.26C46.0275 1060.63 46.7875 1060.82 47.6675 1060.82C48.2915 1060.82 48.7875 1060.73 49.1555 1060.55C49.5395 1060.36 49.7315 1060.06 49.7315 1059.66C49.7315 1059.41 49.6435 1059.19 49.4675 1059.02C49.2915 1058.82 48.9395 1058.67 48.4115 1058.56L46.2995 1058.13C44.9075 1057.84 43.9155 1057.41 43.3235 1056.83C42.7475 1056.24 42.4595 1055.48 42.4595 1054.55C42.4595 1053.9 42.6515 1053.28 43.0355 1052.7C43.4355 1052.13 44.0275 1051.66 44.8115 1051.31C45.5955 1050.94 46.5715 1050.76 47.7395 1050.76C48.9395 1050.76 49.9795 1050.95 50.8595 1051.34C51.7555 1051.7 52.4595 1052.26 52.9715 1052.99L51.0035 1054.91C50.6515 1054.35 50.1875 1053.93 49.6115 1053.64C49.0515 1053.34 48.4595 1053.18 47.8355 1053.18C47.3875 1053.18 47.0035 1053.23 46.6835 1053.33C46.3635 1053.42 46.1235 1053.56 45.9635 1053.74C45.8035 1053.9 45.7235 1054.1 45.7235 1054.36C45.7235 1054.62 45.8355 1054.84 46.0595 1055.03C46.2835 1055.21 46.6915 1055.36 47.2835 1055.49L49.7315 1055.99C50.9155 1056.23 51.7635 1056.64 52.2755 1057.22C52.7875 1057.78 53.0435 1058.46 53.0435 1059.26C53.0435 1060.02 52.8355 1060.71 52.4195 1061.32C52.0195 1061.91 51.4195 1062.38 50.6195 1062.74C49.8355 1063.07 48.8675 1063.24 47.7155 1063.24ZM59.9135 1047.33V1059.09C59.9135 1059.66 60.0575 1060.09 60.3455 1060.36C60.6495 1060.62 61.0575 1060.74 61.5695 1060.74C61.9695 1060.74 62.3215 1060.69 62.6255 1060.58C62.9295 1060.45 63.2015 1060.28 63.4415 1060.07L63.9695 1062.26C63.5855 1062.56 63.1055 1062.8 62.5295 1062.98C61.9535 1063.15 61.3455 1063.24 60.7055 1063.24C59.9055 1063.24 59.1935 1063.12 58.5695 1062.88C57.9615 1062.64 57.4815 1062.26 57.1295 1061.73C56.7935 1061.2 56.6255 1060.5 56.6255 1059.62V1048.24L59.9135 1047.33ZM63.7535 1051V1053.45H54.4175V1051H63.7535ZM85.6858 1047.16V1049.82H80.3818V1063H77.0698V1049.82H71.7418V1047.16H85.6858ZM87.7749 1063V1045.74H91.0629V1053.04C91.4469 1052.27 91.9749 1051.7 92.6469 1051.34C93.3189 1050.95 94.0789 1050.76 94.9269 1050.76C95.7589 1050.76 96.4949 1050.92 97.1349 1051.24C97.7909 1051.56 98.3029 1052.05 98.6709 1052.7C99.0549 1053.34 99.2469 1054.15 99.2469 1055.13V1063H95.9589V1056.09C95.9589 1055.05 95.7589 1054.34 95.3589 1053.95C94.9589 1053.55 94.4469 1053.35 93.8229 1053.35C93.3589 1053.35 92.9109 1053.46 92.4789 1053.69C92.0629 1053.9 91.7189 1054.25 91.4469 1054.74C91.1909 1055.22 91.0629 1055.86 91.0629 1056.66V1063H87.7749ZM108.202 1063.24C106.938 1063.24 105.834 1062.99 104.89 1062.5C103.962 1062 103.242 1061.29 102.73 1060.36C102.218 1059.43 101.962 1058.31 101.962 1057C101.962 1055.69 102.218 1054.57 102.73 1053.64C103.242 1052.71 103.954 1052 104.866 1051.5C105.794 1051.01 106.85 1050.76 108.034 1050.76C109.25 1050.76 110.282 1051.01 111.13 1051.5C111.978 1051.98 112.626 1052.65 113.074 1053.5C113.522 1054.33 113.746 1055.28 113.746 1056.35C113.746 1056.67 113.738 1056.98 113.722 1057.26C113.706 1057.55 113.682 1057.81 113.65 1058.03H104.074V1055.75H112.21L110.626 1056.33C110.626 1055.32 110.394 1054.54 109.93 1054C109.482 1053.46 108.842 1053.18 108.01 1053.18C107.402 1053.18 106.874 1053.33 106.426 1053.62C105.994 1053.9 105.666 1054.34 105.442 1054.91C105.218 1055.47 105.106 1056.18 105.106 1057.05C105.106 1057.9 105.226 1058.6 105.466 1059.16C105.722 1059.7 106.074 1060.11 106.522 1060.38C106.986 1060.66 107.538 1060.79 108.178 1060.79C108.882 1060.79 109.45 1060.66 109.882 1060.38C110.314 1060.11 110.65 1059.74 110.89 1059.26L113.506 1060.26C113.25 1060.89 112.858 1061.42 112.33 1061.87C111.818 1062.32 111.202 1062.66 110.482 1062.9C109.778 1063.13 109.018 1063.24 108.202 1063.24ZM116.533 1063V1051H119.485L119.605 1053.16C120.005 1052.36 120.549 1051.76 121.237 1051.36C121.941 1050.96 122.717 1050.76 123.565 1050.76C124.429 1050.76 125.205 1050.96 125.893 1051.36C126.597 1051.76 127.125 1052.35 127.477 1053.14C127.733 1052.61 128.077 1052.17 128.509 1051.82C128.941 1051.46 129.421 1051.2 129.949 1051.02C130.477 1050.85 131.013 1050.76 131.557 1050.76C132.341 1050.76 133.053 1050.92 133.693 1051.24C134.349 1051.56 134.869 1052.04 135.253 1052.68C135.637 1053.32 135.829 1054.14 135.829 1055.13V1063H132.541V1055.78C132.541 1054.9 132.349 1054.27 131.965 1053.9C131.581 1053.54 131.085 1053.35 130.477 1053.35C129.997 1053.35 129.549 1053.47 129.133 1053.71C128.733 1053.95 128.413 1054.31 128.173 1054.79C127.949 1055.26 127.837 1055.84 127.837 1056.54V1063H124.549V1055.78C124.549 1054.9 124.349 1054.27 123.949 1053.9C123.565 1053.54 123.069 1053.35 122.461 1053.35C122.045 1053.35 121.629 1053.46 121.213 1053.69C120.813 1053.91 120.477 1054.26 120.205 1054.74C119.949 1055.22 119.821 1055.86 119.821 1056.64V1063H116.533ZM158.748 1049.82H150.204V1053.86H156.948V1056.52H150.204V1063H146.892V1047.16H158.748V1049.82ZM165.505 1050.76C166.721 1050.76 167.785 1051.01 168.697 1051.5C169.625 1052 170.345 1052.71 170.857 1053.64C171.385 1054.57 171.649 1055.69 171.649 1057C171.649 1058.3 171.385 1059.42 170.857 1060.36C170.345 1061.29 169.625 1062 168.697 1062.5C167.785 1062.99 166.721 1063.24 165.505 1063.24C164.305 1063.24 163.241 1062.99 162.313 1062.5C161.385 1062 160.657 1061.29 160.129 1060.36C159.617 1059.42 159.361 1058.3 159.361 1057C159.361 1055.69 159.617 1054.57 160.129 1053.64C160.657 1052.71 161.385 1052 162.313 1051.5C163.241 1051.01 164.305 1050.76 165.505 1050.76ZM165.505 1053.21C164.897 1053.21 164.377 1053.35 163.945 1053.64C163.529 1053.91 163.209 1054.33 162.985 1054.89C162.761 1055.45 162.649 1056.15 162.649 1057C162.649 1057.85 162.761 1058.55 162.985 1059.11C163.209 1059.67 163.529 1060.1 163.945 1060.38C164.377 1060.66 164.897 1060.79 165.505 1060.79C166.097 1060.79 166.601 1060.66 167.017 1060.38C167.449 1060.1 167.777 1059.67 168.001 1059.11C168.225 1058.55 168.337 1057.85 168.337 1057C168.337 1056.15 168.225 1055.45 168.001 1054.89C167.777 1054.33 167.449 1053.91 167.017 1053.64C166.601 1053.35 166.097 1053.21 165.505 1053.21ZM174.4 1063V1051H177.256L177.472 1053.35C177.792 1052.52 178.256 1051.88 178.864 1051.43C179.488 1050.98 180.264 1050.76 181.192 1050.76C181.464 1050.76 181.712 1050.78 181.936 1050.83C182.16 1050.88 182.344 1050.94 182.488 1051.02L182.104 1053.78C181.944 1053.72 181.744 1053.67 181.504 1053.64C181.28 1053.61 180.984 1053.59 180.616 1053.59C180.136 1053.59 179.672 1053.71 179.224 1053.95C178.776 1054.18 178.408 1054.53 178.12 1055.01C177.832 1055.47 177.688 1056.06 177.688 1056.78V1063H174.4ZM197.536 1046.92C198.976 1046.92 200.24 1047.17 201.328 1047.66C202.416 1048.16 203.344 1048.9 204.112 1049.87L202.264 1052.01C201.608 1051.18 200.888 1050.57 200.104 1050.18C199.336 1049.78 198.44 1049.58 197.416 1049.58C196.744 1049.58 196.184 1049.67 195.736 1049.85C195.304 1050.02 194.984 1050.26 194.776 1050.54C194.584 1050.83 194.488 1051.15 194.488 1051.5C194.488 1051.94 194.656 1052.3 194.992 1052.61C195.328 1052.9 195.904 1053.14 196.72 1053.33L199.672 1054C201.24 1054.35 202.36 1054.88 203.032 1055.58C203.72 1056.27 204.064 1057.17 204.064 1058.27C204.064 1059.31 203.792 1060.21 203.247 1060.96C202.704 1061.7 201.944 1062.26 200.968 1062.66C199.992 1063.05 198.872 1063.24 197.608 1063.24C196.504 1063.24 195.488 1063.11 194.56 1062.86C193.648 1062.58 192.832 1062.22 192.112 1061.75C191.392 1061.29 190.792 1060.75 190.312 1060.14L192.184 1057.91C192.552 1058.42 193.008 1058.88 193.552 1059.28C194.096 1059.68 194.712 1060 195.4 1060.24C196.104 1060.46 196.84 1060.58 197.608 1060.58C198.264 1060.58 198.816 1060.5 199.264 1060.36C199.728 1060.2 200.072 1059.98 200.296 1059.71C200.536 1059.42 200.656 1059.08 200.656 1058.68C200.656 1058.26 200.512 1057.91 200.224 1057.62C199.952 1057.32 199.44 1057.09 198.688 1056.93L195.472 1056.21C194.544 1055.98 193.744 1055.7 193.072 1055.34C192.416 1054.98 191.912 1054.51 191.56 1053.95C191.224 1053.38 191.056 1052.7 191.056 1051.91C191.056 1050.97 191.312 1050.12 191.824 1049.37C192.336 1048.62 193.072 1048.02 194.032 1047.59C195.008 1047.14 196.176 1046.92 197.536 1046.92ZM213.56 1055.34C213.56 1054.66 213.36 1054.12 212.96 1053.74C212.576 1053.35 212.064 1053.16 211.424 1053.16C210.832 1053.16 210.312 1053.31 209.864 1053.62C209.416 1053.92 209.088 1054.42 208.88 1055.13L206.072 1054.26C206.344 1053.21 206.936 1052.36 207.848 1051.72C208.776 1051.08 210.016 1050.76 211.568 1050.76C212.624 1050.76 213.544 1050.93 214.328 1051.26C215.112 1051.58 215.72 1052.07 216.152 1052.73C216.6 1053.38 216.824 1054.21 216.824 1055.2V1060.07C216.824 1060.68 217.112 1060.98 217.688 1060.98C217.96 1060.98 218.216 1060.94 218.456 1060.86L218.264 1062.9C217.848 1063.11 217.328 1063.22 216.704 1063.22C216.144 1063.22 215.64 1063.12 215.192 1062.93C214.744 1062.74 214.392 1062.45 214.136 1062.06C213.88 1061.66 213.752 1061.17 213.752 1060.58V1060.48L214.328 1060.38C214.232 1060.99 213.968 1061.51 213.536 1061.94C213.104 1062.36 212.576 1062.68 211.952 1062.9C211.344 1063.13 210.712 1063.24 210.056 1063.24C209.24 1063.24 208.536 1063.12 207.944 1062.88C207.352 1062.62 206.896 1062.26 206.576 1061.78C206.256 1061.3 206.096 1060.7 206.096 1060C206.096 1059.1 206.384 1058.38 206.96 1057.82C207.536 1057.24 208.36 1056.85 209.432 1056.64L213.944 1055.73L213.92 1057.77L211.04 1058.34C210.496 1058.46 210.08 1058.61 209.792 1058.8C209.52 1058.98 209.384 1059.27 209.384 1059.69C209.384 1060.09 209.528 1060.39 209.816 1060.6C210.12 1060.81 210.48 1060.91 210.896 1060.91C211.232 1060.91 211.56 1060.87 211.88 1060.79C212.2 1060.71 212.488 1060.58 212.744 1060.41C213 1060.23 213.2 1059.99 213.344 1059.69C213.488 1059.38 213.56 1059.02 213.56 1058.58V1055.34ZM223.741 1045.74V1059.3C223.741 1059.86 223.837 1060.26 224.029 1060.48C224.221 1060.7 224.541 1060.82 224.989 1060.82C225.261 1060.82 225.485 1060.8 225.661 1060.77C225.837 1060.72 226.061 1060.66 226.333 1060.58L226.045 1062.74C225.773 1062.9 225.429 1063.02 225.013 1063.1C224.613 1063.19 224.213 1063.24 223.813 1063.24C222.645 1063.24 221.789 1062.96 221.245 1062.4C220.717 1061.82 220.453 1060.91 220.453 1059.66V1045.74H223.741ZM233.734 1063.24C232.47 1063.24 231.366 1062.99 230.422 1062.5C229.494 1062 228.774 1061.29 228.262 1060.36C227.75 1059.43 227.494 1058.31 227.494 1057C227.494 1055.69 227.75 1054.57 228.262 1053.64C228.774 1052.71 229.486 1052 230.398 1051.5C231.326 1051.01 232.382 1050.76 233.566 1050.76C234.782 1050.76 235.814 1051.01 236.662 1051.5C237.51 1051.98 238.158 1052.65 238.606 1053.5C239.054 1054.33 239.278 1055.28 239.278 1056.35C239.278 1056.67 239.27 1056.98 239.254 1057.26C239.238 1057.55 239.214 1057.81 239.182 1058.03H229.605V1055.75H237.742L236.158 1056.33C236.158 1055.32 235.926 1054.54 235.462 1054C235.014 1053.46 234.374 1053.18 233.542 1053.18C232.934 1053.18 232.406 1053.33 231.958 1053.62C231.526 1053.9 231.198 1054.34 230.974 1054.91C230.75 1055.47 230.638 1056.18 230.638 1057.05C230.638 1057.9 230.758 1058.6 230.998 1059.16C231.254 1059.7 231.606 1060.11 232.054 1060.38C232.518 1060.66 233.07 1060.79 233.71 1060.79C234.414 1060.79 234.982 1060.66 235.414 1060.38C235.846 1060.11 236.182 1059.74 236.422 1059.26L239.038 1060.26C238.782 1060.89 238.39 1061.42 237.862 1061.87C237.35 1062.32 236.734 1062.66 236.014 1062.9C235.31 1063.13 234.55 1063.24 233.734 1063.24Z" fill="#FFCE4E"/>
<circle cx="131" cy="981" r="36" fill="#372839"/>
<path d="M145.167 972.666L131 964.333L116.833 972.666V989.333L131 997.666L145.167 989.333V972.666Z" stroke="#908294" stroke-width="2" stroke-linejoin="round"/>
<path d="M131 979.333V986" stroke="#908294" stroke-width="2" stroke-linecap="round" stroke-linejoin="round"/>
<path d="M137.667 976V986" stroke="#908294" stroke-width="2" stroke-linecap="round" stroke-linejoin="round"/>
<path d="M124.333 982.666V985.999" stroke="#908294" stroke-width="2" stroke-linecap="round" stroke-linejoin="round"/>
<defs>
<clipPath id="clip0_7_664">
<rect width="36" height="36" fill="white" transform="translate(113 369)"/>
</clipPath>
</defs>
</svg>
